<svg width="20" height="20" viewBox="0 0 20 20" fill="none" xmlns="http://www.w3.org/2000/svg">
<path d="M18.6415 8.82195C18.7137 8.55746 18.7497 8.28113 18.7497 7.99256C18.7497 7.37562 18.5973 6.79864 18.2929 6.26186C18.3168 6.09368 18.3289 5.92138 18.3289 5.74512C18.3289 4.93589 18.0883 4.2228 17.6077 3.60579V3.54571C17.6157 2.44803 17.2732 1.58264 16.5799 0.949627C15.8869 0.316612 14.9795 0 13.8578 0H12.5117C11.6703 0 10.869 0.0881093 10.1078 0.26437C9.34645 0.440715 8.45324 0.705042 7.42767 1.05756C6.49816 1.37818 5.94539 1.5384 5.76908 1.5384H2.30782C1.88314 1.5384 1.52052 1.68856 1.22003 1.989C0.919623 2.28954 0.769379 2.65212 0.769379 3.07667V10.769C0.769379 11.1937 0.919497 11.5561 1.22003 11.8567C1.52069 12.1572 1.88314 12.3073 2.30782 12.3073H5.60099C5.88931 12.4998 6.43826 13.1208 7.24753 14.1703C7.72033 14.7875 8.14909 15.296 8.53364 15.697C8.6857 15.8652 8.80997 16.1217 8.90612 16.4661C9.00227 16.8107 9.07236 17.1493 9.11652 17.4818C9.16059 17.8142 9.26281 18.177 9.42303 18.5694C9.58325 18.9621 9.79955 19.2909 10.072 19.5554C10.3844 19.8519 10.7449 20 11.1537 20C11.8268 20 12.4318 19.87 12.9686 19.6096C13.5055 19.3493 13.9142 18.9426 14.1947 18.3896C14.4752 17.8447 14.6155 17.0995 14.6155 16.1541C14.6155 15.4089 14.4232 14.6397 14.0387 13.8464H16.1539C16.9874 13.8464 17.7083 13.542 18.3174 12.9329C18.9265 12.3241 19.2306 11.6069 19.2306 10.7816C19.2303 10.0682 19.0342 9.4151 18.6415 8.82195ZM3.61792 4.38732C3.4657 4.5395 3.28544 4.61565 3.0771 4.61565C2.86872 4.61565 2.68842 4.53967 2.53615 4.38732C2.38397 4.23489 2.30782 4.05484 2.30782 3.84633C2.30782 3.63803 2.38397 3.45773 2.53615 3.30551C2.68859 3.15324 2.86872 3.07717 3.0771 3.07717C3.28544 3.07717 3.4657 3.15324 3.61792 3.30551C3.77019 3.45773 3.84634 3.63799 3.84634 3.84633C3.84634 4.05467 3.77023 4.23489 3.61792 4.38732ZM17.2234 11.8452C16.9111 12.1537 16.5547 12.3079 16.1536 12.3079H11.923C11.923 12.7726 12.1152 13.4115 12.4997 14.2248C12.8844 15.0381 13.0768 15.6813 13.0768 16.1541C13.0768 16.939 12.9486 17.5201 12.6923 17.8967C12.4359 18.2734 11.923 18.4617 11.1539 18.4617C10.9454 18.2534 10.793 17.9125 10.6969 17.4397C10.6011 16.9672 10.4787 16.4644 10.3304 15.9314C10.1823 15.3987 9.94398 14.9598 9.61545 14.6152C9.43932 14.4311 9.13066 14.0663 8.69008 13.5215C8.65804 13.4815 8.5658 13.3613 8.41362 13.1611C8.26148 12.9608 8.13524 12.7966 8.03509 12.6684C7.9349 12.5402 7.79665 12.3699 7.62039 12.1575C7.44404 11.9452 7.28382 11.7689 7.13955 11.6286C6.99529 11.4885 6.84113 11.3462 6.67682 11.2018C6.5126 11.0576 6.35225 10.9494 6.19603 10.8774C6.03981 10.8054 5.89761 10.7694 5.76938 10.7694H5.38478V3.07696H5.76938C5.87353 3.07696 5.99965 3.06509 6.14796 3.04101C6.29606 3.01697 6.42824 2.99083 6.54447 2.96279C6.66066 2.93476 6.81292 2.89068 7.00118 2.83061C7.18961 2.77062 7.32971 2.72444 7.4219 2.6924C7.51409 2.66028 7.6563 2.61027 7.84868 2.54208C8.04106 2.47409 8.15725 2.43208 8.19724 2.41595C9.88782 1.83106 11.258 1.53869 12.3079 1.53869H13.8463C14.5435 1.53869 15.0884 1.70283 15.4808 2.0314C15.8735 2.35992 16.0697 2.86471 16.0697 3.54584C16.0697 3.75418 16.0495 3.97856 16.0098 4.21885C16.2501 4.34707 16.4405 4.55739 16.5806 4.84976C16.7209 5.14212 16.7909 5.43676 16.7909 5.73316C16.7909 6.02948 16.7189 6.30611 16.5745 6.56252C16.9992 6.96316 17.2112 7.43978 17.2112 7.99273C17.2112 8.19307 17.1713 8.41534 17.0914 8.6598C17.0115 8.9043 16.911 9.09453 16.7909 9.23072C17.0473 9.2388 17.2617 9.4271 17.4339 9.79574C17.6062 10.1643 17.6924 10.489 17.6924 10.7693C17.6925 11.1778 17.536 11.5364 17.2234 11.8452Z" fill="#252834" fill-opacity="0.7"/>
</svg>
