<svg width="24" height="14" viewBox="0 0 24 14" fill="none" xmlns="http://www.w3.org/2000/svg">
<path d="M24 4.72198C24 3.53857 23.5406 2.42731 22.7064 1.59308C21.8705 0.757202 20.7592 0.296875 19.5773 0.296875C19.2581 0.296875 18.9425 0.332031 18.635 0.398865C18.7037 0.461487 18.7714 0.525757 18.8375 0.592041C19.9393 1.6936 20.5459 3.16028 20.5459 4.72198C20.5459 6.28369 19.9393 7.75037 18.8375 8.85193L15.436 12.2537L16.3658 13.1835L16.871 13.6863L22.7064 7.85089C23.5404 7.01685 24 5.90558 24 4.72198Z" fill="#252834" fill-opacity="0.7"/>
<path d="M17.8365 7.85107C18.6707 7.01685 19.1301 5.90558 19.1301 4.72198C19.1301 3.53857 18.6707 2.42731 17.8365 1.59308C17.0006 0.757202 15.8895 0.296875 14.7074 0.296875C14.3883 0.296875 14.0726 0.332031 13.7651 0.398865C13.834 0.461487 13.9016 0.525757 13.9677 0.592041C15.0694 1.6936 15.676 3.16028 15.676 4.72198C15.676 6.28369 15.0694 7.75037 13.9677 8.85193L10.5661 12.2537L11.4972 13.1848L12.0013 13.6863L17.8365 7.85107Z" fill="#252834" fill-opacity="0.7"/>
<path d="M12.9668 7.85107C13.801 7.01685 14.2604 5.90558 14.2604 4.72198C14.2604 3.53857 13.801 2.42731 12.9668 1.59308C12.1309 0.757202 11.0197 0.296875 9.83771 0.296875C9.00714 0.296875 8.20038 0.52594 7.50458 0.959717L7.13013 1.19281L6.75586 0.959717C6.06006 0.526123 5.2533 0.296875 4.42273 0.296875C3.2406 0.296875 2.12952 0.757202 1.29364 1.59308C0.459412 2.42731 0 3.53857 0 4.72198C0 5.90558 0.459412 7.01685 1.29364 7.85107L6.62732 13.1848L7.13141 13.6865L12.9668 7.85107Z" fill="#252834" fill-opacity="0.7"/>
</svg>
