<svg width="33" height="20" viewBox="0 0 33 20" fill="none" xmlns="http://www.w3.org/2000/svg">
<path d="M21.304 10.1403C21.304 12.6467 19.2786 14.6722 16.7721 14.6722C14.2656 14.6722 12.2402 12.6467 12.2402 10.1403C12.2402 7.63378 14.2656 5.6084 16.7721 5.6084C19.2786 5.6084 21.304 7.63378 21.304 10.1403Z" stroke="#96968C" stroke-width="2" stroke-linecap="round" stroke-linejoin="round"/>
<path d="M16.5 18.5105C21.0095 18.5105 25.2123 16.3711 28.1377 12.6684C29.2874 11.2182 29.2874 8.78058 28.1377 7.33032C25.2123 3.62762 21.0095 1.48828 16.5 1.48828C11.9905 1.48828 7.78768 3.62762 4.86229 7.33032C3.71257 8.78058 3.71257 11.2182 4.86229 12.6684C7.78768 16.3711 11.9905 18.5105 16.5 18.5105Z" stroke="#96968C" stroke-width="2" stroke-linecap="round" stroke-linejoin="round"/>
</svg>
