<svg width="20" height="20" viewBox="0 0 20 20" fill="none" xmlns="http://www.w3.org/2000/svg">
<path d="M18.6416 11.178C19.0342 10.5849 19.2303 9.93199 19.2303 9.21888C19.2303 8.39349 18.9262 7.67659 18.3174 7.06703C17.7083 6.45811 16.9871 6.15371 16.1539 6.15371H14.0385C14.423 5.36052 14.6156 4.59121 14.6156 3.84615C14.6156 2.90861 14.475 2.16351 14.1948 1.61061C13.9143 1.05755 13.5056 0.651022 12.9687 0.390487C12.4316 0.130078 11.8269 0 11.1538 0C10.745 0 10.3846 0.148222 10.0721 0.444791C9.72762 0.781269 9.47921 1.21406 9.32703 1.74292C9.17476 2.27161 9.05252 2.77849 8.96045 3.26328C8.86839 3.74802 8.72602 4.09056 8.5338 4.29085C8.14109 4.71552 7.71246 5.22847 7.24771 5.82935C6.43845 6.8789 5.88951 7.49995 5.60119 7.69233H2.30807C1.8834 7.69233 1.52078 7.84279 1.2203 8.14302C0.919938 8.44355 0.769653 8.80612 0.769653 9.23083V16.9228C0.769653 17.3475 0.919769 17.71 1.2203 18.0105C1.52095 18.311 1.8834 18.4614 2.30807 18.4614H5.76928C5.94558 18.4614 6.49835 18.6216 7.42784 18.9422C8.41345 19.2868 9.2808 19.5491 10.0299 19.7294C10.7791 19.9098 11.5383 20 12.3076 20H13.425H13.858C14.9877 20 15.897 19.6773 16.5862 19.0322C17.2751 18.3871 17.6158 17.5078 17.6079 16.394C18.0886 15.777 18.3289 15.0639 18.3289 14.2547C18.3289 14.0785 18.3171 13.9063 18.2929 13.7379C18.5973 13.2012 18.7499 12.6243 18.7499 12.0073C18.7497 11.7188 18.7137 11.4422 18.6416 11.178ZM3.61815 16.6946C3.46593 16.8468 3.28568 16.9231 3.07734 16.9231C2.86896 16.9231 2.68866 16.8468 2.5364 16.6946C2.38422 16.5425 2.30807 16.3622 2.30807 16.1537C2.30807 15.9454 2.38405 15.7652 2.5364 15.6129C2.68883 15.4606 2.86896 15.3845 3.07734 15.3845C3.28568 15.3845 3.46593 15.4606 3.61815 15.6129C3.77042 15.7651 3.84657 15.9454 3.84657 16.1537C3.84657 16.3622 3.77042 16.5425 3.61815 16.6946ZM17.4341 10.205C17.2618 10.5735 17.0474 10.7618 16.791 10.7697C16.9111 10.906 17.0114 11.0965 17.0915 11.3406C17.1716 11.5851 17.2114 11.8073 17.2114 12.0078C17.2114 12.5604 16.9993 13.0372 16.5746 13.4377C16.719 13.694 16.791 13.9706 16.791 14.2669C16.791 14.5634 16.721 14.8579 16.5807 15.1503C16.4407 15.4424 16.2502 15.6528 16.0099 15.781C16.05 16.0213 16.0698 16.2457 16.0698 16.454C16.0698 17.792 15.3006 18.4611 13.762 18.4611H12.3081C11.2582 18.4611 9.8883 18.1688 8.19749 17.5837C8.15738 17.5677 8.04136 17.5255 7.84894 17.4575C7.65651 17.3896 7.51435 17.3394 7.42216 17.3075C7.32997 17.2752 7.18987 17.2291 7.00145 17.1692C6.81307 17.1089 6.66101 17.0648 6.54474 17.0369C6.42864 17.009 6.29633 16.9829 6.14824 16.9588C6.00006 16.9348 5.87381 16.9228 5.76966 16.9228H5.38507V9.23113H5.76966C5.89785 9.23113 6.04005 9.19497 6.19631 9.12302C6.35253 9.05087 6.51288 8.94273 6.6771 8.79846C6.8414 8.6542 6.99551 8.51199 7.13982 8.37169C7.28408 8.23151 7.4443 8.05525 7.62065 7.843C7.7969 7.63058 7.93511 7.46038 8.03534 7.33216C8.13544 7.20397 8.26161 7.03963 8.41387 6.83933C8.56605 6.63908 8.65828 6.51885 8.69032 6.47873C9.13094 5.93396 9.43942 5.56941 9.61568 5.38502C9.9442 5.04059 10.1826 4.6019 10.3308 4.06905C10.4792 3.53611 10.6013 3.0333 10.6971 2.56065C10.7932 2.08794 10.9456 1.7473 11.1542 1.53896C11.9232 1.53896 12.4362 1.72718 12.6925 2.10381C12.9488 2.48037 13.077 3.06134 13.077 3.84657C13.077 4.31927 12.8846 4.96225 12.4999 5.77547C12.1154 6.58877 11.9232 7.2278 11.9232 7.6925H16.1537C16.5548 7.6925 16.9112 7.84666 17.2235 8.15531C17.5361 8.46375 17.6926 8.82225 17.6926 9.231C17.6925 9.51141 17.6063 9.83597 17.4341 10.205Z" fill="#252834" fill-opacity="0.7"/>
</svg>
