<svg width="145" height="52" viewBox="0 0 145 52" fill="none" xmlns="http://www.w3.org/2000/svg">
<ellipse cx="135.352" cy="25" rx="4.01044" ry="4" fill="#D64B34"/>
<path d="M7.61364 34V19.4545H12.7983C13.9299 19.4545 14.8674 19.6605 15.6108 20.0724C16.3542 20.4844 16.9105 21.0478 17.2798 21.7628C17.6491 22.473 17.8338 23.2732 17.8338 24.1634C17.8338 25.0582 17.6468 25.8632 17.2727 26.5781C16.9034 27.2884 16.3447 27.8518 15.5966 28.2685C14.8532 28.6804 13.9181 28.8864 12.7912 28.8864H9.22585V27.0256H12.5923C13.3073 27.0256 13.8873 26.9025 14.3324 26.6562C14.7775 26.4053 15.1042 26.0644 15.3125 25.6335C15.5208 25.2027 15.625 24.7126 15.625 24.1634C15.625 23.6141 15.5208 23.1264 15.3125 22.7003C15.1042 22.2741 14.7751 21.9403 14.3253 21.6989C13.8802 21.4574 13.2931 21.3366 12.5639 21.3366H9.80824V34H7.61364ZM23.3132 34.2415C22.6219 34.2415 21.9969 34.1136 21.4382 33.858C20.8795 33.5975 20.4368 33.2211 20.1101 32.7287C19.7881 32.2363 19.6271 31.6326 19.6271 30.9176C19.6271 30.3021 19.7455 29.7955 19.9822 29.3977C20.219 29 20.5386 28.6851 20.9411 28.4531C21.3435 28.2211 21.7933 28.0459 22.2905 27.9276C22.7876 27.8092 23.2943 27.7192 23.8104 27.6577C24.4638 27.5819 24.9941 27.5204 25.4013 27.473C25.8085 27.4209 26.1044 27.3381 26.2891 27.2244C26.4737 27.1108 26.5661 26.9261 26.5661 26.6705V26.6207C26.5661 26.0005 26.3909 25.5199 26.0405 25.179C25.6948 24.8381 25.1787 24.6676 24.4922 24.6676C23.7772 24.6676 23.2138 24.8262 22.8018 25.1435C22.3946 25.456 22.1129 25.804 21.9567 26.1875L19.9609 25.733C20.1977 25.0701 20.5433 24.535 20.9979 24.1278C21.4571 23.7159 21.9851 23.4176 22.5817 23.233C23.1783 23.0436 23.8056 22.9489 24.4638 22.9489C24.8994 22.9489 25.361 23.0009 25.8487 23.1051C26.3411 23.2045 26.8004 23.3892 27.2266 23.6591C27.6574 23.929 28.0102 24.3149 28.2848 24.8168C28.5594 25.3139 28.6967 25.9602 28.6967 26.7557V34H26.6229V32.5085H26.5376C26.4003 32.7831 26.1944 33.053 25.9197 33.3182C25.6451 33.5833 25.2924 33.8035 24.8615 33.9787C24.4306 34.1539 23.9145 34.2415 23.3132 34.2415ZM23.7749 32.5369C24.362 32.5369 24.8639 32.4209 25.2805 32.1889C25.7019 31.9569 26.0215 31.6539 26.2393 31.2798C26.4619 30.901 26.5732 30.4962 26.5732 30.0653V28.6591C26.4974 28.7348 26.3506 28.8059 26.1328 28.8722C25.9197 28.9337 25.6759 28.9882 25.4013 29.0355C25.1267 29.0781 24.8591 29.1184 24.5987 29.1562C24.3383 29.1894 24.1205 29.2178 23.9453 29.2415C23.5334 29.2936 23.157 29.3812 22.8161 29.5043C22.4799 29.6274 22.21 29.8049 22.0064 30.0369C21.8075 30.2642 21.7081 30.5672 21.7081 30.946C21.7081 31.4716 21.9022 31.8693 22.2905 32.1392C22.6787 32.4044 23.1735 32.5369 23.7749 32.5369ZM30.4599 37.1463V32.1605H31.3477C31.5749 31.9522 31.7667 31.7036 31.9229 31.4148C32.0839 31.1259 32.2189 30.7827 32.3278 30.3849C32.4414 29.9872 32.5361 29.5232 32.6119 28.9929C32.6876 28.4579 32.7539 27.8471 32.8107 27.1605L33.1516 23.0909H40.5664V32.1605H42.2425V37.1463H40.1687V34H32.5621V37.1463H30.4599ZM33.6204 32.1605H38.4925V24.9091H35.055L34.8278 27.1605C34.7189 28.3063 34.5816 29.3007 34.4158 30.1435C34.2501 30.9815 33.985 31.6539 33.6204 32.1605ZM46.3991 31.0241L51.2074 23.0909H53.4943V34H51.4134V26.0597L46.6264 34H44.3182V23.0909H46.3991V31.0241ZM60.9446 34.2202C59.9219 34.2202 59.0294 33.9858 58.267 33.517C57.5047 33.0483 56.9129 32.3925 56.4915 31.5497C56.0701 30.7069 55.8594 29.7221 55.8594 28.5952C55.8594 27.4635 56.0701 26.474 56.4915 25.6264C56.9129 24.7789 57.5047 24.1207 58.267 23.652C59.0294 23.1832 59.9219 22.9489 60.9446 22.9489C61.9673 22.9489 62.8598 23.1832 63.6222 23.652C64.3845 24.1207 64.9763 24.7789 65.3977 25.6264C65.8191 26.474 66.0298 27.4635 66.0298 28.5952C66.0298 29.7221 65.8191 30.7069 65.3977 31.5497C64.9763 32.3925 64.3845 33.0483 63.6222 33.517C62.8598 33.9858 61.9673 34.2202 60.9446 34.2202ZM60.9517 32.4375C61.6146 32.4375 62.1638 32.2623 62.5994 31.9119C63.035 31.5616 63.357 31.0952 63.5653 30.5128C63.7784 29.9304 63.8849 29.2888 63.8849 28.5881C63.8849 27.892 63.7784 27.2528 63.5653 26.6705C63.357 26.0833 63.035 25.6122 62.5994 25.2571C62.1638 24.902 61.6146 24.7244 60.9517 24.7244C60.2841 24.7244 59.7301 24.902 59.2898 25.2571C58.8542 25.6122 58.5298 26.0833 58.3168 26.6705C58.1084 27.2528 58.0043 27.892 58.0043 28.5881C58.0043 29.2888 58.1084 29.9304 58.3168 30.5128C58.5298 31.0952 58.8542 31.5616 59.2898 31.9119C59.7301 32.2623 60.2841 32.4375 60.9517 32.4375ZM73.7827 34V16.5455H77.473V30.9574H84.956V34H73.7827ZM91.0902 16.5455V34H87.3999V16.5455H91.0902ZM97.2798 16.5455L101.499 29.8068H101.661L105.888 16.5455H109.979L103.962 34H99.206L93.1804 16.5455H97.2798ZM112.08 34V16.5455H123.841V19.5881H115.77V23.7472H123.236V26.7898H115.77V30.9574H123.875V34H112.08Z" fill="white"/>
</svg>
