<svg width="28" height="28" viewBox="0 0 28 28" fill="none" xmlns="http://www.w3.org/2000/svg">
<path d="M13.35 26.6978C5.99123 26.6978 0 20.7071 0 13.3489C0 5.99074 5.99123 0 13.35 0C20.7088 0 26.7 5.99074 26.7 13.3489C26.7 20.7071 20.7088 26.6978 13.35 26.6978ZM13.35 1.9535C7.05923 1.9535 1.95366 7.07167 1.95366 13.3489C1.95366 19.6262 7.05923 24.7443 13.35 24.7443C19.6408 24.7443 24.7464 19.6262 24.7464 13.3489C24.7464 7.07167 19.6408 1.9535 13.35 1.9535Z" fill="#292D32"/>
<path d="M27.0264 28C26.779 28 26.5315 27.9088 26.3361 27.7135L23.7312 25.1088C23.3535 24.7311 23.3535 24.106 23.7312 23.7283C24.109 23.3507 24.7341 23.3507 25.1118 23.7283L27.7167 26.333C28.0944 26.7107 28.0944 27.3358 27.7167 27.7135C27.5214 27.9088 27.2739 28 27.0264 28Z" fill="#292D32"/>
</svg>
