<svg width="39" height="32" viewBox="0 0 39 32" fill="none" xmlns="http://www.w3.org/2000/svg">
<path fill-rule="evenodd" clip-rule="evenodd" d="M31.126 1.98336C28.3216 3.07775 20.7602 5.99425 14.3229 8.46436C1.91078 13.227 0.932493 13.6366 0.728074 14.1582C0.486804 14.7744 0.883822 15.6134 1.58422 15.9682C1.9678 16.1626 4.08685 16.9191 6.29351 17.6493L10.3054 18.9774L16.3121 15.2346C19.6158 13.1762 24.516 10.1225 27.2015 8.44893C31.7407 5.62007 33.0428 4.97955 32.8098 5.68977C32.7322 5.92704 20.3173 17.0515 16.5279 20.2793L15.3726 21.2636L16.0519 21.7926C16.8621 22.4234 22.5328 26.6795 26.6724 29.7638C29.9649 32.2169 30.6572 32.4421 31.8397 31.4458C32.4337 30.9454 32.6054 30.2183 35.445 16.186C37.085 8.08223 38.4267 1.23817 38.4267 0.976829C38.4267 -0.537162 37.1256 -0.35779 31.126 1.98336Z" fill="white"/>
</svg>
