<svg width="37" height="30" viewBox="0 0 37 30" fill="none" xmlns="http://www.w3.org/2000/svg">
<path d="M36.5513 3.61485C35.2379 4.21349 33.8337 4.61739 32.3526 4.80492C33.8616 3.86729 35.0213 2.38872 35.5663 0.62886C34.155 1.47994 32.5831 2.10022 30.9204 2.44642C29.586 0.975062 27.6927 0.051857 25.5829 0.051857C21.5448 0.051857 18.2682 3.43454 18.2682 7.59617C18.2682 8.19481 18.3381 8.77181 18.4569 9.31996C12.3788 9.02425 6.98537 6.00941 3.38045 1.45109C2.7447 2.56182 2.38839 3.84565 2.38839 5.2521C2.38839 7.87746 3.68086 10.1855 5.644 11.5414C4.44236 11.4982 3.31757 11.1592 2.3325 10.5966V10.6903C2.3325 14.3543 4.84757 17.4052 8.20099 18.0976C7.58619 18.2707 6.93647 18.3573 6.27277 18.3573C5.80469 18.3573 5.35757 18.314 4.91044 18.2274C5.84661 21.2279 8.54331 23.4133 11.757 23.471C9.2629 25.4977 6.09113 26.7022 2.6888 26.7022C2.10894 26.7022 1.52908 26.6661 0.949219 26.6012C4.20483 28.7433 8.0403 29.9911 12.1832 29.9911C25.6318 29.9911 32.9883 18.4871 32.9883 8.52659C32.9883 8.20923 32.9883 7.88467 32.9674 7.56011C34.3926 6.49986 35.6431 5.16554 36.6212 3.65091L36.5513 3.61485Z" fill="white"/>
</svg>
