<svg width="36" height="37" viewBox="0 0 36 37" fill="none" xmlns="http://www.w3.org/2000/svg">
<path d="M15.5259 28.5312C15.1831 29.0259 14.8586 29.2698 14.5483 29.2698C14.3414 29.2698 14.2237 29.1461 14.1863 28.9007C14.1715 28.85 14.1715 28.6574 14.1715 28.2874V21.8723H12.626V28.762C12.626 29.3778 12.6772 29.7931 12.7624 30.0571C12.9166 30.4985 13.2603 30.7051 13.7588 30.7051C14.3271 30.7051 14.9113 30.3547 15.5254 29.6347V30.5854H17.0734V21.8728H15.5259V28.5312Z" fill="white"/>
<path d="M7.00879 20.5383H8.82816V30.5857H10.548V20.5383H12.4009V18.8923H7.00879V20.5383Z" fill="white"/>
<path d="M17.5411 12.9208C18.0449 12.9208 18.2863 12.5135 18.2863 11.6986V7.99436C18.2863 7.18042 18.0449 6.7747 17.5411 6.7747C17.0367 6.7747 16.7949 7.18042 16.7949 7.99436V11.6986C16.7954 12.513 17.0367 12.9208 17.5411 12.9208Z" fill="white"/>
<path d="M21.5573 21.7665C20.989 21.7665 20.459 22.0843 19.9601 22.7117V18.8923H18.4131V30.5857H19.9601V29.7401C20.4763 30.3932 21.0077 30.7054 21.5573 30.7054C22.1735 30.7054 22.5872 30.3746 22.7941 29.7265C22.897 29.357 22.9497 28.7768 22.9497 27.9709V24.5015C22.9497 23.677 22.897 23.1008 22.7941 22.7504C22.5867 22.0974 22.1735 21.7665 21.5573 21.7665ZM21.4032 28.0946C21.4032 28.8814 21.1761 29.2695 20.7304 29.2695C20.4763 29.2695 20.2182 29.1459 19.9596 28.8819V23.5709C20.2182 23.311 20.4758 23.1873 20.7304 23.1873C21.1766 23.1873 21.4032 23.5905 21.4032 24.3763V28.0946Z" fill="white"/>
<path d="M26.4825 21.7664C25.6934 21.7664 25.0768 22.0635 24.6306 22.6603C24.3016 23.1002 24.1523 23.7809 24.1523 24.7115V27.7642C24.1523 28.6892 24.3208 29.3775 24.6493 29.8124C25.096 30.4071 25.7117 30.7048 26.5214 30.7048C27.3291 30.7048 27.963 30.3925 28.3915 29.7611C28.5786 29.4801 28.7008 29.1638 28.7525 28.8144C28.7663 28.6561 28.7855 28.3051 28.7855 27.7974V27.5661H27.207C27.207 28.1996 27.1877 28.55 27.1735 28.636C27.0853 29.0578 26.8627 29.2689 26.4825 29.2689C25.9515 29.2689 25.6934 28.8667 25.6934 28.0603V26.5159H28.786V24.711C28.786 23.7799 28.6308 23.0997 28.3073 22.6598C27.8743 22.063 27.2587 21.7664 26.4825 21.7664ZM27.2395 25.2022H25.6934V24.3963C25.6934 23.5909 25.9515 23.1877 26.4687 23.1877C26.9804 23.1877 27.2395 23.5909 27.2395 24.3963V25.2022Z" fill="white"/>
<path d="M32.1789 0.181168H3.61269C1.71648 0.181168 0.165039 1.76482 0.165039 3.70039V32.8597C0.165039 34.7953 1.71648 36.3789 3.61269 36.3789H32.1789C34.0751 36.3789 35.6265 34.7953 35.6265 32.8597V3.70039C35.6265 1.76482 34.0751 0.181168 32.1789 0.181168ZM21.1366 5.44492H22.6944V11.9263C22.6944 12.3014 22.6944 12.4959 22.7136 12.5472C22.7481 12.7946 22.8703 12.9208 23.0801 12.9208C23.3923 12.9208 23.7208 12.6734 24.0671 12.1737V5.44492H25.6303V14.248H24.0671V13.2878C23.445 14.0162 22.8515 14.3702 22.2817 14.3702C21.7783 14.3702 21.4311 14.1615 21.275 13.7151C21.1888 13.4491 21.1366 13.0273 21.1366 12.4059V5.44492ZM15.2327 8.3146C15.2327 7.37396 15.3898 6.6857 15.7223 6.24077C16.1547 5.63948 16.7635 5.33834 17.5417 5.33834C18.3248 5.33834 18.9325 5.63948 19.3655 6.24077C19.6925 6.6857 19.8506 7.37396 19.8506 8.3146V11.3989C19.8506 12.3341 19.693 13.0278 19.3655 13.4698C18.9325 14.0695 18.3253 14.3707 17.5417 14.3707C16.763 14.3707 16.1542 14.0695 15.7223 13.4698C15.3898 13.0278 15.2327 12.3341 15.2327 11.3989V8.3146ZM11.0532 2.43448L12.284 7.07332L13.4656 2.43448H15.218L13.1336 9.46388V14.248H11.3999V9.46388C11.2433 8.61524 10.8966 7.37346 10.341 5.72596C9.97556 4.62997 9.59484 3.52896 9.22989 2.43448H11.0532ZM30.2448 31.1091C29.9325 32.4982 28.8184 33.5228 27.4788 33.6751C24.305 34.0371 21.0932 34.0391 17.8958 34.0371C14.6979 34.0391 11.4861 34.0371 8.31281 33.6751C6.97266 33.5223 5.86055 32.4977 5.5478 31.1091C5.10207 29.1303 5.10207 26.9705 5.10207 24.9344C5.10207 22.8963 5.10699 20.738 5.55322 18.7586C5.86548 17.3701 6.97808 16.346 8.31823 16.1931C11.4915 15.8302 14.7033 15.8291 17.9012 15.8302C21.0987 15.8291 24.3104 15.8302 27.4842 16.1931C28.8234 16.346 29.9369 17.3701 30.2497 18.7586C30.6954 20.7385 30.693 22.8963 30.693 24.9344C30.6935 26.9705 30.691 29.1303 30.2448 31.1091Z" fill="white"/>
</svg>
