<svg width="79" height="54" viewBox="0 0 79 54" fill="none" xmlns="http://www.w3.org/2000/svg">
<rect width="79" height="54" fill="#FBFBFB"/>
<path d="M23.0114 14.7273V38H18.0909V19.3977H17.9545L12.625 22.7386V18.375L18.3864 14.7273H23.0114ZM37.2244 38.3182C35.4744 38.3182 33.9176 38.0341 32.554 37.4659C31.1979 36.8902 30.1335 36.1061 29.3608 35.1136C28.5881 34.1212 28.2017 32.9962 28.2017 31.7386C28.2017 30.7689 28.4214 29.8788 28.8608 29.0682C29.3078 28.25 29.9138 27.572 30.679 27.0341C31.4441 26.4886 32.3002 26.1402 33.2472 25.9886V25.8295C32.0047 25.5795 30.9972 24.9773 30.2244 24.0227C29.4517 23.0606 29.0653 21.9432 29.0653 20.6705C29.0653 19.4659 29.4176 18.3939 30.1222 17.4545C30.8267 16.5076 31.7926 15.7652 33.0199 15.2273C34.2547 14.6818 35.6562 14.4091 37.2244 14.4091C38.7926 14.4091 40.1903 14.6818 41.4176 15.2273C42.6525 15.7727 43.6222 16.5189 44.3267 17.4659C45.0313 18.4053 45.3873 19.4735 45.3949 20.6705C45.3873 21.9508 44.9934 23.0682 44.2131 24.0227C43.4328 24.9773 42.4328 25.5795 41.2131 25.8295V25.9886C42.1449 26.1402 42.9896 26.4886 43.7472 27.0341C44.5123 27.572 45.1184 28.25 45.5653 29.0682C46.0199 29.8788 46.2509 30.7689 46.2585 31.7386C46.2509 32.9962 45.8608 34.1212 45.0881 35.1136C44.3153 36.1061 43.2472 36.8902 41.8835 37.4659C40.5275 38.0341 38.9744 38.3182 37.2244 38.3182ZM37.2244 34.7045C38.0047 34.7045 38.6866 34.5644 39.2699 34.2841C39.8532 33.9962 40.3078 33.6023 40.6335 33.1023C40.9669 32.5947 41.1335 32.0114 41.1335 31.3523C41.1335 30.678 40.9631 30.0833 40.6222 29.5682C40.2813 29.0455 39.8191 28.6364 39.2358 28.3409C38.6525 28.0379 37.982 27.8864 37.2244 27.8864C36.4744 27.8864 35.804 28.0379 35.2131 28.3409C34.6222 28.6364 34.1563 29.0455 33.8153 29.5682C33.482 30.0833 33.3153 30.678 33.3153 31.3523C33.3153 32.0114 33.4782 32.5947 33.804 33.1023C34.1297 33.6023 34.5881 33.9962 35.179 34.2841C35.7699 34.5644 36.4517 34.7045 37.2244 34.7045ZM37.2244 24.3068C37.8759 24.3068 38.4555 24.1742 38.9631 23.9091C39.4706 23.6439 39.8684 23.2765 40.1562 22.8068C40.4441 22.3371 40.5881 21.7955 40.5881 21.1818C40.5881 20.5758 40.4441 20.0455 40.1562 19.5909C39.8684 19.1288 39.4744 18.7689 38.9744 18.5114C38.4744 18.2462 37.8911 18.1136 37.2244 18.1136C36.5653 18.1136 35.982 18.2462 35.4744 18.5114C34.9669 18.7689 34.5691 19.1288 34.2812 19.5909C34.0009 20.0455 33.8608 20.5758 33.8608 21.1818C33.8608 21.7955 34.0047 22.3371 34.2926 22.8068C34.5805 23.2765 34.9782 23.6439 35.4858 23.9091C35.9934 24.1742 36.5729 24.3068 37.2244 24.3068ZM56.6534 34.4545V18.3636H60.7216V34.4545H56.6534ZM50.642 28.4432V24.375H66.733V28.4432H50.642Z" fill="#4A4A3B"/>
</svg>
