<svg width="28" height="28" viewBox="0 0 28 28" fill="none" xmlns="http://www.w3.org/2000/svg">
<path d="M13.5702 26.4101C6.46687 26.4101 0.683594 20.4839 0.683594 13.205C0.683594 5.92616 6.46687 0 13.5702 0C20.6736 0 26.4569 5.92616 26.4569 13.205C26.4569 20.4839 20.6736 26.4101 13.5702 26.4101ZM13.5702 1.93244C7.4978 1.93244 2.56944 6.99545 2.56944 13.205C2.56944 19.4146 7.4978 24.4776 13.5702 24.4776C19.6427 24.4776 24.571 19.4146 24.571 13.205C24.571 6.99545 19.6427 1.93244 13.5702 1.93244Z" fill="white"/>
<path d="M26.772 27.6982C26.5331 27.6982 26.2942 27.608 26.1056 27.4148L23.5911 24.8382C23.2265 24.4646 23.2265 23.8462 23.5911 23.4726C23.9557 23.099 24.5592 23.099 24.9238 23.4726L27.4383 26.0492C27.8029 26.4228 27.8029 27.0412 27.4383 27.4148C27.2497 27.608 27.0108 27.6982 26.772 27.6982Z" fill="white"/>
</svg>
