<svg width="42" height="37" viewBox="0 0 42 37" fill="none" xmlns="http://www.w3.org/2000/svg">
<path fill-rule="evenodd" clip-rule="evenodd" d="M33.1844 2.27597C30.1301 3.53183 21.8947 6.87862 14.8836 9.71317C1.36528 15.1785 0.2998 15.6485 0.0771618 16.247C-0.185612 16.9542 0.246791 17.9169 1.00962 18.3241C1.42738 18.5472 3.7353 19.4153 6.13863 20.2533L10.5081 21.7772L17.0502 17.4823C20.6483 15.1201 25.9853 11.616 28.9101 9.69545C33.8538 6.44923 35.272 5.71422 35.0183 6.52922C34.9337 6.8015 21.4123 19.5672 17.2852 23.2712L16.0269 24.4007L16.7667 25.0078C17.6492 25.7316 23.8253 30.6157 28.3338 34.155C31.9198 36.97 32.6738 37.2285 33.9616 36.0852C34.6086 35.5109 34.7956 34.6766 37.8883 18.574C39.6745 9.27466 41.1358 1.42084 41.1358 1.12095C41.1358 -0.616413 39.7187 -0.410577 33.1844 2.27597Z" fill="#4A4A3B"/>
</svg>
