<svg width="35" height="36" viewBox="0 0 35 36" fill="none" xmlns="http://www.w3.org/2000/svg">
<path d="M23.1513 0.815918H12.7152C3.1842 0.815918 0.928711 3.14255 0.928711 12.9742V23.7467C0.928711 33.5784 3.1842 35.905 12.7152 35.905H23.1583C32.6894 35.905 34.9448 33.5784 34.9448 23.7467V12.9742C34.9378 3.14255 32.6611 0.815918 23.1513 0.815918ZM28.3834 25.8473H25.9088C24.9755 25.8473 24.6856 25.0815 23.0028 23.3237C21.5392 21.865 20.8887 21.6681 20.5281 21.6681C20.0261 21.6681 19.8776 21.814 19.8776 22.536V24.8408C19.8776 25.4607 19.6867 25.8327 18.1029 25.8327C15.4869 25.8327 12.5809 24.1989 10.5446 21.1502C7.47599 16.6939 6.6346 13.3535 6.6346 12.6606C6.6346 12.2886 6.77601 11.9458 7.47599 11.9458H9.95066C10.5729 11.9458 10.8133 12.2449 11.0537 12.9377C12.2769 16.5772 14.3202 19.7718 15.1545 19.7718C15.4656 19.7718 15.6071 19.6259 15.6071 18.809V15.0456C15.5081 13.3097 14.6243 13.1638 14.6243 12.5439C14.6243 12.2449 14.8646 11.9531 15.2465 11.9531H19.1352C19.6655 11.9531 19.8564 12.2522 19.8564 12.894V17.9703C19.8564 18.5173 20.0968 18.7142 20.2382 18.7142C20.5493 18.7142 20.8109 18.5173 21.3907 17.9192C23.1654 15.8624 24.4381 12.6971 24.4381 12.6971C24.6078 12.3251 24.8906 11.9823 25.5199 11.9823H27.9946C28.737 11.9823 28.9066 12.3761 28.737 12.9232C28.4259 14.411 25.3997 18.8163 25.3997 18.8163C25.1381 19.2612 25.0391 19.4582 25.3997 19.9541C25.6613 20.3261 26.531 21.0919 27.1037 21.7848C28.1572 23.0247 28.9774 24.0604 29.1895 24.7824C29.444 25.4753 29.0834 25.8473 28.3834 25.8473Z" fill="#4A4A3B"/>
</svg>
