<svg width="37" height="38" viewBox="0 0 37 38" fill="none" xmlns="http://www.w3.org/2000/svg">
<path d="M18.5098 0.815125C13.6657 0.815125 13.0594 0.836468 11.1566 0.921844C9.25378 1.01433 7.96435 1.32026 6.82825 1.76848C5.65731 2.23093 4.66061 2.85702 3.66392 3.86729C2.66722 4.87757 2.06084 5.89496 1.6078 7.09733C1.16869 8.25701 0.868985 9.58033 0.778377 11.5155C0.687768 13.4578 0.673828 14.0768 0.673828 19.0214C0.673828 23.9661 0.694738 24.585 0.778377 26.5273C0.868985 28.4625 1.16869 29.7858 1.6078 30.9455C2.06084 32.1408 2.67419 33.1581 3.66392 34.1755C4.65364 35.1858 5.65034 35.8119 6.82825 36.2743C7.96435 36.7226 9.26075 37.0285 11.1566 37.121C13.0594 37.2135 13.6657 37.2277 18.5098 37.2277C23.3539 37.2277 23.9603 37.2064 25.8631 37.121C27.7589 37.0285 29.0553 36.7226 30.1914 36.2743C31.3623 35.8119 32.359 35.1858 33.3557 34.1755C34.3454 33.1653 34.9588 32.1479 35.4118 30.9455C35.8509 29.7858 36.1507 28.4625 36.2413 26.5273C36.3319 24.585 36.3458 23.9661 36.3458 19.0214C36.3458 14.0768 36.3249 13.4578 36.2413 11.5155C36.1507 9.58033 35.8509 8.25701 35.4118 7.09733C34.9588 5.90207 34.3454 4.88468 33.3557 3.86729C32.366 2.85702 31.3693 2.23093 30.1914 1.76848C29.0553 1.32026 27.7589 1.01433 25.8631 0.921844C23.9603 0.836468 23.3539 0.815125 18.5098 0.815125ZM18.5098 4.09496C23.2703 4.09496 23.8418 4.1163 25.7237 4.20168C27.4661 4.28706 28.4071 4.57875 29.0344 4.83488C29.8708 5.16215 30.4632 5.56057 31.0905 6.19377C31.7108 6.83409 32.1011 7.43883 32.4217 8.29258C32.6657 8.9329 32.9584 9.89337 33.0351 11.672C33.1187 13.593 33.1396 14.1692 33.1396 19.0356C33.1396 23.902 33.1187 24.4783 33.0281 26.3993C32.9375 28.1779 32.6448 29.1384 32.4008 29.7787C32.0663 30.6325 31.6899 31.2372 31.0626 31.8775C30.4423 32.5107 29.8359 32.9091 29.0135 33.2364C28.3862 33.4854 27.4313 33.7842 25.6888 33.8625C23.793 33.9479 23.2354 33.9692 18.461 33.9692C13.6866 33.9692 13.129 33.9479 11.2332 33.8554C9.49076 33.7629 8.53588 33.4641 7.90859 33.2151C7.06523 32.8736 6.47976 32.4894 5.85944 31.8491C5.23215 31.2159 4.83486 30.5969 4.52121 29.7574C4.27727 29.117 3.98453 28.1423 3.89392 26.3637C3.82422 24.4499 3.80332 23.8594 3.80332 19.0143C3.80332 14.1621 3.82422 13.5716 3.89392 11.6364C3.98453 9.8578 4.2703 8.88309 4.52121 8.24278C4.83486 7.3748 5.23215 6.78428 5.85944 6.14397C6.47976 5.51077 7.06523 5.09812 7.90859 4.77796C8.53588 4.52895 9.46985 4.23014 11.2123 4.13765C13.1081 4.0665 13.6657 4.04516 18.4401 4.04516L18.5098 4.09496ZM18.5098 9.67282C13.4497 9.67282 9.34439 13.8633 9.34439 19.0285C9.34439 24.1937 13.4497 28.3842 18.5098 28.3842C23.57 28.3842 27.6752 24.1937 27.6752 19.0285C27.6752 13.8633 23.57 9.67282 18.5098 9.67282ZM18.5098 25.0973C15.227 25.0973 12.5645 22.3795 12.5645 19.0285C12.5645 15.6775 15.227 12.9598 18.5098 12.9598C21.7926 12.9598 24.4551 15.6775 24.4551 19.0285C24.4551 22.3795 21.7926 25.0973 18.5098 25.0973ZM30.1774 9.30997C30.1774 10.5195 29.2156 11.4942 28.0377 11.4942C26.8528 11.4942 25.8979 10.5123 25.8979 9.30997C25.8979 8.1076 26.8598 7.12579 28.0377 7.12579C29.2156 7.11867 30.1774 8.10049 30.1774 9.30997Z" fill="white"/>
</svg>
