<svg width="36" height="31" viewBox="0 0 36 31" fill="none" xmlns="http://www.w3.org/2000/svg">
<path d="M35.6643 3.85735C34.3536 4.46106 32.9523 4.86839 31.4742 5.0575C32.9801 4.11193 34.1375 2.62083 34.6813 0.846053C33.273 1.70434 31.7043 2.32988 30.045 2.67902C28.7134 1.19519 26.824 0.26416 24.7185 0.26416C20.6888 0.26416 17.419 3.67551 17.419 7.87241C17.419 8.47612 17.4887 9.05801 17.6072 9.61081C11.5417 9.31259 6.15942 6.2722 2.56195 1.67525C1.92751 2.79539 1.57194 4.09011 1.57194 5.50847C1.57194 8.15608 2.86174 10.4837 4.82083 11.8511C3.62167 11.8075 2.4992 11.4656 1.51617 10.8983V10.9928C1.51617 14.6878 4.02604 17.7646 7.37253 18.4629C6.759 18.6374 6.11062 18.7247 5.44829 18.7247C4.98118 18.7247 4.53498 18.6811 4.08878 18.5938C5.02301 21.6196 7.71415 23.8235 10.9212 23.8817C8.43225 25.9256 5.26702 27.1403 1.87173 27.1403C1.29307 27.1403 0.714406 27.104 0.135742 27.0385C3.38462 29.1988 7.21217 30.4571 11.3465 30.4571C24.7673 30.4571 32.1087 18.8556 32.1087 8.81071C32.1087 8.49067 32.1087 8.16335 32.0877 7.83604C33.51 6.76681 34.758 5.42118 35.734 3.89372L35.6643 3.85735Z" fill="#4A4A3B"/>
</svg>
