<svg width="35" height="36" viewBox="0 0 35 36" fill="none" xmlns="http://www.w3.org/2000/svg">
<path d="M22.9502 0.624191H12.4926C2.9418 0.624191 0.681641 2.93127 0.681641 12.6803V23.3623C0.681641 33.1114 2.9418 35.4184 12.4926 35.4184H22.9573C32.508 35.4184 34.7682 33.1114 34.7682 23.3623V12.6803C34.7611 2.93127 32.4797 0.624191 22.9502 0.624191ZM28.1932 25.4452H25.7134C24.7782 25.4452 24.4877 24.6858 22.8014 22.9428C21.3348 21.4964 20.683 21.3011 20.3216 21.3011C19.8186 21.3011 19.6698 21.4458 19.6698 22.1618V24.4472C19.6698 25.0619 19.4785 25.4307 17.8914 25.4307C15.2699 25.4307 12.3579 23.8107 10.3174 20.7876C7.24247 16.3688 6.39934 13.0564 6.39934 12.3693C6.39934 12.0005 6.54104 11.6606 7.24247 11.6606H9.72227C10.3458 11.6606 10.5867 11.9571 10.8275 12.6442C12.0533 16.253 14.1009 19.4208 14.9369 19.4208C15.2487 19.4208 15.3904 19.2761 15.3904 18.4661V14.7343C15.2912 13.013 14.4055 12.8684 14.4055 12.2536C14.4055 11.9571 14.6464 11.6678 15.029 11.6678H18.9259C19.4572 11.6678 19.6485 11.9643 19.6485 12.6008V17.6344C19.6485 18.1768 19.8894 18.3721 20.0311 18.3721C20.3429 18.3721 20.605 18.1768 21.186 17.5838C22.9644 15.5443 24.2397 12.4055 24.2397 12.4055C24.4097 12.0366 24.6931 11.6967 25.3237 11.6967H27.8035C28.5475 11.6967 28.7175 12.0873 28.5475 12.6297C28.2357 14.1051 25.2033 18.4733 25.2033 18.4733C24.9411 18.9145 24.8419 19.1098 25.2033 19.6016C25.4654 19.9704 26.3369 20.7298 26.9108 21.4168C27.9665 22.6463 28.7884 23.6733 29.0009 24.3893C29.256 25.0764 28.8946 25.4452 28.1932 25.4452Z" fill="white"/>
</svg>
